External Loads File
version=1
nRows=61
nColumns=13
Range=5.000000e-03-10 seconds
endheader
time 	forceRightX 	forceRightY 	forceRightZ 	pointRightX 	pointRightY 	pointRightZ 	forceLeftX 	forceLeftY 	forceLeftZ 	pointLeftX 	pointLeftY 	pointLeftZ 		
2.505000 146.797384 1511.027795 -0.000000 0.310619 0.163576 -0.092755 -14.884137 -63.340587 -0.000000 0.193028 0.462335 -0.333317
2.510000 157.347700 1535.060520 -0.000000 0.303870 0.159590 -0.092618 -20.218812 -44.550033 -0.000000 0.200354 0.466485 -0.333346
2.515000 169.460729 1547.330456 -0.000000 0.297034 0.156119 -0.092424 -24.628100 -21.941439 -0.000000 0.207964 0.470331 -0.333376
2.520000 180.421384 1544.761628 -0.000000 0.290268 0.152967 -0.092234 -27.802933 4.005384 -0.000000 0.215478 0.473628 -0.333554
2.525000 191.150546 1524.362363 -0.000000 0.283483 0.150180 -0.092003 -29.668060 32.344526 -0.000000 0.223082 0.476612 -0.333628
2.530000 200.647679 1484.027544 -0.000000 0.276581 0.147827 -0.091802 -30.296446 61.609442 -0.000000 0.230642 0.479282 -0.333730
2.535000 206.974554 1422.615841 -0.000000 0.269857 0.145923 -0.091431 -29.980277 90.054980 -0.000000 0.238179 0.481859 -0.333753
2.540000 208.628211 1339.882374 -0.000000 0.263186 0.144478 -0.091217 -29.164697 116.047006 -0.000000 0.245393 0.484278 -0.333781
2.545000 205.281319 1236.440980 -0.000000 0.256653 0.143367 -0.090934 -28.311427 138.415118 -0.000000 0.252384 0.486369 -0.333775
2.550000 197.477206 1113.898089 -0.000000 0.250155 0.142893 -0.090766 -27.811163 156.655756 -0.000000 0.259212 0.488224 -0.333942
2.555000 185.217137 975.206355 -0.000000 0.243833 0.142882 -0.090479 -28.100704 170.916728 -0.000000 0.265935 0.489662 -0.334125
2.560000 169.100221 824.550633 -0.000000 0.237576 0.143451 -0.090243 -29.519300 181.849097 -0.000000 0.272369 0.490481 -0.334464
2.565000 150.772643 667.162095 -0.000000 0.231589 0.144590 -0.089799 -32.157839 190.407180 -0.000000 0.278913 0.490753 -0.334981
2.570000 132.482776 508.959621 -0.000000 0.225197 0.146479 -0.089604 -35.868454 197.752330 -0.000000 0.285260 0.490334 -0.335619
2.575000 116.535281 355.767462 -0.000000 0.218132 0.149033 -0.089678 -40.361204 205.246331 -0.000000 0.291681 0.489267 -0.336681
2.580000 104.070760 212.597014 -0.000000 0.210477 0.152301 -0.089684 -46.041249 214.231275 -0.000000 0.297609 0.487814 -0.337330
2.585000 97.529232 81.770785 -0.000000 0.201663 0.156470 -0.090092 -52.274340 226.205371 -0.000000 0.303520 0.485873 -0.338021
2.590000 96.931778 -36.166838 -0.000000 0.192214 0.161775 -0.090668 -59.277304 242.220556 -0.000000 0.309273 0.483238 -0.338736
2.595000 101.149718 -142.314443 -0.000000 0.182204 0.167961 -0.091681 -66.870868 262.959845 -0.000000 0.314901 0.479997 -0.339485
2.600000 107.895052 -237.708818 -0.000000 0.172542 0.174592 -0.092126 -75.251504 288.492634 -0.000000 0.320568 0.476116 -0.340050
2.605000 114.248319 -322.377029 -0.000000 0.163604 0.181421 -0.092863 -84.335894 318.447772 -0.000000 0.326217 0.471663 -0.340548
2.610000 117.937445 -394.737654 -0.000000 0.155865 0.187837 -0.093464 -94.437433 351.850803 -0.000000 0.331632 0.466653 -0.340971
2.615000 117.348294 -452.578225 -0.000000 0.149368 0.193711 -0.093854 -105.607873 387.395862 -0.000000 0.336707 0.461413 -0.341363
2.620000 111.341057 -494.336124 -0.000000 0.143731 0.199429 -0.094320 -117.400364 423.840596 -0.000000 0.341129 0.455902 -0.341681
2.625000 99.971531 -519.745476 -0.000000 0.138617 0.204946 -0.094804 -129.403947 460.324225 -0.000000 0.345002 0.449993 -0.342018
2.630000 83.134295 -530.057725 -0.000000 0.133521 0.210723 -0.095288 -140.016094 496.994400 -0.000000 0.348908 0.443413 -0.342612
2.635000 63.647055 -526.801018 -0.000000 0.128541 0.217070 -0.095855 -149.387580 534.040221 -0.000000 0.352600 0.436127 -0.343322
2.640000 43.667988 -511.810315 -0.000000 0.123407 0.223726 -0.096409 -156.568927 572.019935 -0.000000 0.356473 0.427870 -0.344020
2.645000 27.032435 -486.690790 -0.000000 0.118617 0.230768 -0.096890 -162.364685 610.572337 -0.000000 0.360368 0.419154 -0.344419
2.650000 15.273998 -453.330802 -0.000000 0.113363 0.238403 -0.098351 -165.628816 649.200336 -0.000000 0.364184 0.410566 -0.344197
2.655000 10.988261 -413.821010 -0.000000 0.109387 0.246321 -0.098404 -168.151279 686.162089 -0.000000 0.367672 0.401886 -0.343808
2.660000 12.914385 -370.607195 -0.000000 0.105828 0.254572 -0.098307 -168.072819 720.607216 -0.000000 0.370782 0.393038 -0.343450
2.665000 20.542259 -326.080787 -0.000000 0.102810 0.262767 -0.098103 -166.232428 751.334826 -0.000000 0.373652 0.384086 -0.343080
2.670000 32.248845 -282.416269 -0.000000 0.100282 0.271116 -0.097805 -162.830505 777.793041 -0.000000 0.376220 0.375085 -0.342316
2.675000 46.152436 -241.545650 -0.000000 0.098362 0.279509 -0.097597 -157.848683 799.936178 -0.000000 0.378709 0.365652 -0.341846
2.680000 61.424843 -204.990190 -0.000000 0.097044 0.288093 -0.097406 -154.910547 817.455449 -0.000000 0.380848 0.356919 -0.341458
2.685000 75.369823 -174.511879 -0.000000 0.096258 0.296936 -0.097354 -150.680394 831.888992 -0.000000 0.382551 0.347494 -0.341309
2.690000 87.041713 -151.154670 -0.000000 0.096016 0.305947 -0.097375 -147.163834 844.223083 -0.000000 0.384121 0.337931 -0.341305
2.695000 95.219328 -135.431153 -0.000000 0.096270 0.314984 -0.097462 -144.390896 856.185961 -0.000000 0.385663 0.327986 -0.340965
2.700000 99.150178 -126.976436 -0.000000 0.097262 0.324189 -0.097464 -142.877216 869.553079 -0.000000 0.386948 0.317917 -0.341129
2.705000 98.495592 -124.674393 -0.000000 0.098722 0.333483 -0.097499 -142.760484 886.111935 -0.000000 0.387256 0.307835 -0.340431
2.710000 93.462406 -126.846271 -0.000000 0.100558 0.342754 -0.097631 -144.178636 907.497289 -0.000000 0.387100 0.297840 -0.340302
2.715000 84.764632 -131.613013 -0.000000 0.103026 0.351783 -0.097759 -147.092473 935.165980 -0.000000 0.386372 0.287916 -0.340148
2.720000 73.331783 -137.338782 -0.000000 0.105988 0.360818 -0.097872 -150.202935 970.532700 -0.000000 0.385069 0.278064 -0.340031
2.725000 60.444414 -142.654978 -0.000000 0.109487 0.369714 -0.098018 -153.620391 1014.574522 -0.000000 0.383025 0.268384 -0.339894
2.730000 47.312770 -146.735913 -0.000000 0.113401 0.378514 -0.098254 -157.473059 1068.091990 -0.000000 0.380425 0.258982 -0.339804
2.735000 34.668844 -149.295974 -0.000000 0.117837 0.387249 -0.098449 -159.914262 1131.934534 -0.000000 0.377177 0.249585 -0.339761
2.740000 23.312698 -150.246378 -0.000000 0.122765 0.395776 -0.098594 -161.490713 1206.189833 -0.000000 0.373501 0.240329 -0.339568
2.745000 13.677961 -149.736598 -0.000000 0.128061 0.403926 -0.098703 -162.313142 1290.448082 -0.000000 0.369285 0.231360 -0.339312
2.750000 5.641327 -148.036338 -0.000000 0.133895 0.411847 -0.098752 -160.052315 1383.902079 -0.000000 0.364662 0.222556 -0.338925
2.755000 -0.890409 -145.428204 -0.000000 0.140144 0.419578 -0.098693 -154.167493 1484.679864 -0.000000 0.359588 0.214175 -0.338485
2.760000 -6.236040 -142.229625 -0.000000 0.146771 0.427002 -0.098703 -143.157098 1590.098511 -0.000000 0.354007 0.206166 -0.338098
2.765000 -10.751659 -138.750522 -0.000000 0.153732 0.434074 -0.098703 -125.866771 1696.508491 -0.000000 0.348023 0.198475 -0.337704
2.770000 -14.854944 -135.250534 -0.000000 0.161049 0.440854 -0.098798 -101.051183 1799.483065 -0.000000 0.341618 0.191240 -0.337429
2.775000 -18.847056 -131.894914 -0.000000 0.168534 0.447312 -0.098965 -69.444818 1893.963598 -0.000000 0.334882 0.184503 -0.337150
2.780000 -23.174947 -128.675400 -0.000000 0.176460 0.453452 -0.099099 -29.633015 1974.843456 -0.000000 0.327868 0.178215 -0.336861
2.785000 -27.953918 -125.503802 -0.000000 0.184576 0.459164 -0.099318 15.888551 2037.142083 -0.000000 0.320635 0.172323 -0.336650
2.790000 -33.553947 -122.181691 -0.000000 0.193460 0.464624 -0.098758 70.002675 2076.431482 -0.000000 0.313150 0.166763 -0.336482
2.795000 -39.320886 -118.781108 -0.000000 0.201654 0.469587 -0.099536 119.745725 2089.555633 -0.000000 0.305588 0.161677 -0.336302
2.800000 -45.657344 -115.107380 -0.000000 0.210344 0.474237 -0.099861 171.135118 2073.862243 -0.000000 0.297950 0.156682 -0.336127
2.805000 -52.283805 -111.138565 -0.000000 0.219485 0.478416 -0.099511 219.507335 2028.278182 -0.000000 0.290268 0.152581 -0.336004
